{"title":"Machete 2010 DVDrip English Klam","uid":6501766,"size":1683178186,"categoryP":"video","categoryS":"movies","magnet":"?xt=urn:btih:37c24ccc66e2eca53fac6a63929bff69da82c8dd&amp;dn=Machete+2010+DVDrip+English+Klam&amp;tr=udp%3A%2F%2Ftracker.openbittorrent.com%3A80&amp;tr=udp%3A%2F%2Fopen.demonii.com%3A1337&amp;tr=udp%3A%2F%2Ftracker.coppersurfer.tk%3A6969&amp;tr=udp%3A%2F%2Fexodus.desync.com%3A6969","seeders":0,"leechers":1,"uploader":"Klambake","files":-1,"time":1309271601,"description":"With: Danny Trejo, Jessica Alba and Robert De Niro\n\nMachete (Danny Trejo) is een voormalig lid van de Mexicaanse Federale Politie die tegenwoordig leeggeklopt door de drugsbaas Torrez (Steven Seagal) over de straten van Texas zwerft. Schoorvoetend neemt hij een aanbod aan van spindoctor Benz (Jeff Fahey) om de corrupte senator McLaughlin (Robert De Niro) om te leggen. Bedrogen en met de kansen tegen hem gekeerd vlucht hij. Machete weet contact te leggen met Luz (Michelle Rodriguez), die als het hoofd van 'het Netwerk' veel connecties en wapens heeft. Daarnaast krijgt hij ook hulp van Padre (Cheech Marin), zijn 'heilige' broer. Ondertussen wordt hij achtervolgd door Sartana (Jessica Alba), een sexy ICE-agent die Machete als een kans ziet om hogerop te komen.\n\nAfter being set-up and betrayed by the man who hired him to assassinate a Texas Senator, an ex-Federale launches a brutal rampage of revenge against his former boss.\n\n------------------ Dutch Friends ------------------\nYou can find my Friends at: http://www.Film-Test.nl \n------ They got my dutchs subs ---- and more ------\n\nGeneral:\n\nComplete name                    : Machete\\Machete.avi\nFormat                           : AVI\nFormat/Info                      : Audio Video Interleave\nFile size                        : 1.57 GiB\nDuration                         : 1h 40mn\nOverall bit rate                 : 2 231 Kbps\n\nVideo:\n\nFormat                           : MPEG-4 Visual\nFormat profile                   : Simple@L3\nFormat settings, BVOP            : No\nFormat settings, QPel            : No\nFormat settings, GMC             : No warppoints\nFormat settings, Matrix          : Default (H.263)\nCodec ID                         : XVID\nCodec ID/Hint                    : XviD\nDuration                         : 1h 40mn\nBit rate                         : 1 836 Kbps\nWidth                            : 652 pixels\nHeight                           : 352 pixels\nDisplay aspect ratio             : 1.852\nFrame rate                       : 25.000 fps\nColor space                      : YUV\nChroma subsampling               : 4:2:0\nBit depth                        : 8 bits\nScan type                        : Progressive\nBits/(Pixel*Frame)               : 0.320\nStream size                      : 1.29 GiB (82%)\nWriting library                  : XviD 1.1.2 (UTC 2006-11-01)\n\nAudio:\n\nFormat                           : AC-3\nFormat/Info                      : Audio Coding 3\nMode extension                   : CM (complete main)\nCodec ID                         : 2000\nDuration                         : 1h 40mn\nBit rate mode                    : Constant\nBit rate                         : 384 Kbps\nChannel(s)                       : 6 channels\nChannel positions                : Front: L C R, Side: L R, LFE\nSampling rate                    : 48.0 KHz\nBit depth                        : 16 bits\nStream size                      : 276 MiB (17%)\nAlignment                        : Aligned on interleaves\nInterleave, duration             : 32 ms (0.80 video frame)\nInterleave, preload duration     : 160 ms\n\n","torrent":{"xt":"urn:btih:37c24ccc66e2eca53fac6a63929bff69da82c8dd","amp;dn":"Machete+2010+DVDrip+English+Klam","amp;tr":["udp%3A%2F%2Ftracker.openbittorrent.com%3A80","udp%3A%2F%2Fopen.demonii.com%3A1337","udp%3A%2F%2Ftracker.coppersurfer.tk%3A6969","udp%3A%2F%2Fexodus.desync.com%3A6969"],"infoHash":"37c24ccc66e2eca53fac6a63929bff69da82c8dd","infoHashBuffer":{"type":"Buffer","data":[55,194,76,204,102,226,236,165,63,172,106,99,146,155,255,105,218,130,200,221]},"announce":[],"urlList":[]}}